<?xml version="1.0" encoding="UTF-8"?>
<svg width="9px" height="16px" viewBox="0 0 9 16" version="1.1" xmlns="http://www.w3.org/2000/svg" xmlns:xlink="http://www.w3.org/1999/xlink">
    <!-- Generator: Sketch 64 (93537) - https://sketch.com -->
    <title>arrow</title>
    <desc>Created with Sketch.</desc>
    <g id="Page-1" stroke="none" stroke-width="1" fill="none" fill-rule="evenodd">
        <g id="arrow" transform="translate(4.500000, 8.000000) scale(-1, 1) translate(-4.500000, -8.000000) " fill="#3E4956" fill-rule="nonzero">
            <g id="noun_Arrow-Left_778923" transform="translate(4.500000, 8.000000) scale(-1, 1) rotate(-180.000000) translate(-4.500000, -8.000000) ">
                <path d="M1.69447031,5.9568607 C1.25739309,6.38853054 0.61311404,7.02483875 0.262770805,7.37086526 C-0.0875902685,7.71689177 -0.0875902685,8.28311376 0.262770805,8.62914027 C0.613131879,8.97516678 1.25739309,9.611475 1.69447031,10.0431448 L7.34563032,15.6243727 C7.78270754,16.0560425 8.42698659,16.1261288 8.77734766,15.7801023 C9.12770874,15.4340757 9.05674457,14.7977675 8.61966734,14.3660977 L2.96850734,8.78486982 C2.53143012,8.35319999 2.53143012,7.64682316 2.96850734,7.21513571 L8.61966734,1.63390784 C9.05674457,1.20223801 9.12770874,0.565929789 8.77734766,0.21990328 C8.42698659,-0.126123228 7.78270754,-0.056054622 7.34563032,0.375632828 L1.69447031,5.9568607 Z" id="Path"></path>
            </g>
        </g>
    </g>
</svg>